<?xml version="1.0" standalone="no"?>
<!DOCTYPE svg PUBLIC "-//W3C//DTD SVG 20010904//EN"
 "http://www.w3.org/TR/2001/REC-SVG-20010904/DTD/svg10.dtd">
<svg version="1.0" xmlns="http://www.w3.org/2000/svg"
 width="700.000000pt" height="700.000000pt" viewBox="0 0 700.000000 700.000000"
 preserveAspectRatio="xMidYMid meet">
<metadata>
Created by potrace 1.11, written by Peter Selinger 2001-2013
</metadata>
<g transform="translate(0.000000,700.000000) scale(0.100000,-0.100000)"
fill="#000000" stroke="none">
<path d="M0 5998 c1 -800 4 -1010 14 -1040 19 -52 54 -93 106 -120 l45 -23
1012 -1 1013 -2 -5 92 c-21 400 -127 739 -336 1074 -127 204 -277 371 -500
558 -42 34 -250 169 -319 206 -277 149 -600 238 -923 254 l-107 5 0 -1003z"/>
<path d="M4437 6994 c-1 -1 -33 -4 -72 -8 -403 -37 -829 -214 -1149 -476 -115
-93 -280 -261 -349 -355 -4 -5 -21 -28 -37 -49 -78 -101 -177 -276 -260 -461
-28 -62 -95 -274 -105 -334 -3 -19 -8 -38 -10 -41 -3 -4 -7 -25 -10 -46 -3
-22 -8 -48 -10 -60 -4 -20 -9 -60 -19 -156 -5 -40 -9 -157 -7 -185 1 -9 246
-11 1014 -10 l1012 2 46 27 c53 31 95 87 106 143 5 22 8 483 8 1025 l-1 985
-77 0 c-43 1 -79 0 -80 -1z"/>
<path d="M179 4588 c-56 -10 -113 -48 -146 -101 l-28 -42 -3 -900 c-2 -495 0
-924 3 -953 8 -67 52 -127 118 -161 l48 -24 922 0 c827 1 926 2 959 17 45 19
90 61 115 107 17 32 18 81 18 969 0 892 -1 937 -19 969 -26 49 -54 76 -105
102 l-45 23 -897 0 c-493 1 -916 -2 -940 -6z"/>
<path d="M2589 4589 c-80 -13 -150 -76 -171 -154 -11 -41 -13 -218 -12 -955 1
-895 1 -905 22 -945 29 -56 58 -84 111 -108 45 -20 61 -20 961 -20 899 0 916
0 961 20 56 25 85 54 112 113 20 44 20 61 21 935 1 490 -3 912 -7 940 -11 65
-50 118 -112 151 l-49 28 -902 0 c-495 1 -916 -2 -935 -5z"/>
<path d="M4975 4585 c-57 -15 -100 -48 -132 -103 l-28 -47 -2 -1012 c-1 -939
0 -1013 15 -1014 26 -1 144 3 167 5 124 15 166 21 265 41 448 90 878 339 1190
691 328 369 522 846 545 1334 l5 115 -992 0 c-658 0 -1006 -4 -1033 -10z"/>
<path d="M2574 2180 c-80 -18 -148 -90 -162 -170 -4 -25 -7 -448 -7 -940 l1
-895 22 -46 c27 -56 63 -89 120 -112 39 -16 118 -17 949 -17 650 0 916 3 944
11 53 16 103 61 130 116 l23 47 0 922 -1 922 -25 48 c-30 59 -98 109 -160 117
-62 9 -1797 6 -1834 -3z"/>
<path d="M4812 1188 c0 -1100 -3 -1049 61 -1117 18 -18 50 -42 72 -52 38 -17
90 -18 1048 -19 l1008 0 -5 112 c-5 99 -19 222 -32 283 -3 11 -9 44 -15 74
-45 233 -177 539 -324 755 -342 499 -869 837 -1460 935 -70 12 -169 21 -277
26 l-76 3 0 -1000z"/>
</g>
</svg>
